<?xml version="1.0" encoding="UTF-8" standalone="no"?>
<!-- Created with Inkscape (http://www.inkscape.org/) -->

<svg
   xmlns:dc="http://purl.org/dc/elements/1.1/"
   xmlns:cc="http://creativecommons.org/ns#"
   xmlns:rdf="http://www.w3.org/1999/02/22-rdf-syntax-ns#"
   xmlns:svg="http://www.w3.org/2000/svg"
   xmlns="http://www.w3.org/2000/svg"
   xmlns:sodipodi="http://sodipodi.sourceforge.net/DTD/sodipodi-0.dtd"
   xmlns:inkscape="http://www.inkscape.org/namespaces/inkscape"
   width="512"
   height="260"
   viewBox="0 0 135.46666 68.791717"
   version="1.1"
   id="svg830"
   inkscape:version="0.92.5 (2060ec1f9f, 2020-04-08)"
   sodipodi:docname="mediconnect_compressed.svg">
  <defs
     id="defs824" />
  <sodipodi:namedview
     id="base"
     pagecolor="#ffffff"
     bordercolor="#666666"
     borderopacity="1.0"
     inkscape:pageopacity="0.0"
     inkscape:pageshadow="2"
     inkscape:zoom="0.98994949"
     inkscape:cx="135.80896"
     inkscape:cy="382.72449"
     inkscape:document-units="mm"
     inkscape:current-layer="layer1"
     showgrid="false"
     units="px"
     inkscape:window-width="1871"
     inkscape:window-height="1168"
     inkscape:window-x="49"
     inkscape:window-y="0"
     inkscape:window-maximized="1" />
  <metadata
     id="metadata827">
    <rdf:RDF>
      <cc:Work
         rdf:about="">
        <dc:format>image/svg+xml</dc:format>
        <dc:type
           rdf:resource="http://purl.org/dc/dcmitype/StillImage" />
        <dc:title></dc:title>
      </cc:Work>
    </rdf:RDF>
  </metadata>
  <g
     inkscape:label="Layer 1"
     inkscape:groupmode="layer"
     id="layer1"
     transform="translate(0,-228.20823)">
    <g
       style="display:inline"
       id="g952"
       transform="matrix(3.7876177,0,0,3.7876177,-25.445664,181.33941)">
      <path
         sodipodi:nodetypes="cccsccscc"
         inkscape:connector-curvature="0"
         id="path53"
         d="M 31.542969,19.958496 30.749512,21.09375 23.4375,15.136719 c 0,0 -2.521323,-1.754422 -4.797363,-0.02441 -2.338796,1.777708 -1.062012,4.663087 -1.062012,4.663087 l -1.135254,0.927734 c 0,0 -1.883544,-4.390377 1.281738,-6.640625 3.28496,-2.335329 6.738282,0.109867 6.738282,0.109867 z"
         style="fill:#7ed957;fill-opacity:0.94117647;stroke:#000000;stroke-width:0;stroke-linecap:butt;stroke-linejoin:round;stroke-miterlimit:4;stroke-dasharray:none;stroke-opacity:1" />
      <path
         sodipodi:nodetypes="ccccccccscccssccccccccccccc"
         inkscape:connector-curvature="0"
         id="path879"
         d="m 24.53125,16.59375 -1.046875,-0.929688 -7.039063,5.679688 -0.265624,-0.226563 -0.843751,0.648438 c 0,0 -0.208423,-0.497362 -0.83819,-0.563654 -0.629767,-0.06629 -1.558602,0.277228 -1.558602,0.277228 l -3.39227,1.598924 c 0,0 -1.2890625,0.695312 -1.7109375,1.773437 C 7.4140625,25.929685 7.5,26.992185 7.5,26.992185 c 0,0 0.1796875,1.289063 1.1953125,0.710938 1.015625,-0.578123 0,-1.562498 0,-1.562498 0,0 -0.1171875,-0.984375 0.5234375,-1.484375 0.3160903,-0.246705 0.946885,-0.74979 1.544453,-0.990391 0.613532,-0.247029 1.24461,-0.267422 1.24461,-0.267422 1.891975,-1.418104 2.121157,-0.941003 2.960937,-0.320312 0.609375,0.53125 0.742187,0.804688 0.820312,1.382813 0.07813,0.578125 -1.101562,1.554687 -1.101562,1.554687 0,0 -0.794204,0.670991 -0.615847,1.233819 -0.852699,0.69663 -1.751924,1.832998 -2.59218,1.863722 -0.836815,0.436308 -0.924805,-1.575573 -2.1882849,-0.40815 -0.6791322,1.522288 1.1199629,1.301452 1.1199629,1.301452 2.416719,1.166229 6.603072,-4.145013 6.666974,-5.818973 -0.04018,-0.686503 -0.4375,-0.84375 -0.4375,-0.84375 l 0.8125,-0.6875 -0.1875,-0.265625 z"
         style="fill:#7eda57;fill-opacity:0.94117647;stroke:#000000;stroke-width:0;stroke-linecap:butt;stroke-linejoin:miter;stroke-miterlimit:4;stroke-dasharray:none;stroke-opacity:1" />
      <path
         sodipodi:nodetypes="cccccsccscccc"
         inkscape:connector-curvature="0"
         id="path900"
         d="m 26.317631,15.1087 -1.149049,-0.883884 c 0,0 2.822727,-2.614526 6.452349,-0.375651 4.73149,3.510124 0.635086,8.876479 -2.026711,11.187266 -1.884151,1.616178 -3.82703,3.178657 -4.7129,3.706171 -0.921442,-0.51453 -2.486101,-1.7984 -3.904671,-3.023792 -1.728281,-1.492927 -3.210592,-2.975567 -3.210592,-2.975567 l 1.038564,-0.994369 c 0.0172,-0.0172 1.391713,1.437395 2.945865,2.844711 1.266112,1.146489 2.545891,1.993768 3.020348,2.447542 0.64502,-0.108913 2.689329,-1.837666 4.445688,-3.321197 3.768657,-3.285858 3.944459,-6.518731 1.973518,-8.434453 C 29.093122,13.423925 26.317631,15.1087 26.317631,15.1087 Z"
         style="fill:#104069;fill-opacity:0.98823529;stroke:#000000;stroke-width:0;stroke-linecap:butt;stroke-linejoin:miter;stroke-miterlimit:4;stroke-dasharray:none;stroke-opacity:1" />
      <path
         sodipodi:nodetypes="ccscccccccccccccc"
         inkscape:connector-curvature="0"
         id="path902"
         d="m 24.507813,20.5625 1.070313,-1.015625 c 0,0 0.63647,-0.688104 1.507812,-0.03516 0.847779,0.635287 0.285156,1.515626 0.285156,1.515626 l -1.394531,1.472655 c 0,0 -0.119125,0.216964 -0.839844,0.199219 -0.402738,-0.0099 -0.855469,-0.535156 -0.855469,-0.535156 l 0.375,-0.296875 c 0,0 0.195831,0.277124 0.5,0.300782 0.351562,0.02735 0.523438,-0.160157 0.523438,-0.160157 l 1.179687,-1.234375 c 0,0 0.277344,-0.535156 -0.132812,-0.820313 C 26.367977,19.70382 26.0625,19.914061 26.0625,19.914061 l -0.824219,0.777348 c 0,0 -0.02344,-0.0625 -0.335937,-0.101562 -0.3125,-0.03906 -0.394531,-0.02734 -0.394531,-0.02734 z"
         style="fill:#104069;fill-opacity:1;stroke:#000000;stroke-width:0;stroke-linecap:butt;stroke-linejoin:miter;stroke-miterlimit:4;stroke-dasharray:none;stroke-opacity:1" />
      <path
         sodipodi:nodetypes="ccscccccccccccccc"
         inkscape:connector-curvature="0"
         id="path902-3"
         d="m 25.386574,23.108543 -1.070313,1.015625 c 0,0 -0.762654,0.73388 -1.507812,0.03516 -0.888642,-0.833262 -0.285156,-1.515626 -0.285156,-1.515626 l 1.394531,-1.472655 c 0,0 0.21987,-0.225359 0.839844,-0.199219 0.448847,0.01892 0.855469,0.535156 0.855469,0.535156 l -0.375,0.296875 c 0,0 -0.195831,-0.277124 -0.5,-0.300782 -0.351562,-0.02735 -0.523438,0.160157 -0.523438,0.160157 l -1.179687,1.234375 c 0,0 -0.277344,0.535156 0.132812,0.820313 0.358586,0.249301 0.664063,0.03906 0.664063,0.03906 l 0.824219,-0.777348 c 0,0 0.02344,0.0625 0.335937,0.101562 0.3125,0.03906 0.394531,0.02734 0.394531,0.02734 z"
         style="display:inline;fill:#104069;fill-opacity:1;stroke:#000000;stroke-width:0;stroke-linecap:butt;stroke-linejoin:miter;stroke-miterlimit:4;stroke-dasharray:none;stroke-opacity:1" />
      <path
         id="path919"
         d="m 33.333984,21.361328 -0.863281,1.216797 0.519531,0.419922 -0.121093,0.220703 0.818359,0.662109 c 0,0 -1.174571,3.636165 1.689453,5.105469 3.246319,1.665428 5.370101,-0.875322 5.845703,-2.111328 0.478771,-1.244238 0.313447,-3.547487 -1.779297,-4.794922 -2.402622,-1.432146 -4.607421,0.277344 -4.607421,0.277344 l -0.652344,-0.609375 -0.253906,0.199219 z m 4.042969,1.503906 a 2.5522137,2.5632622 0 0 1 2.552735,2.5625 2.5522137,2.5632622 0 0 1 -2.552735,2.564454 2.5522137,2.5632622 0 0 1 -2.552734,-2.564454 2.5522137,2.5632622 0 0 1 2.552734,-2.5625 z"
         style="fill:#104069;fill-opacity:0.98823529;stroke:#000000;stroke-width:0;stroke-linecap:butt;stroke-linejoin:miter;stroke-miterlimit:4;stroke-dasharray:none;stroke-opacity:1"
         inkscape:connector-curvature="0" />
      <path
         id="path921"
         d="m 37.371094,23.427734 a 2.093699,2.032932 0 0 0 -2.09375,2.033204 2.093699,2.032932 0 0 0 2.09375,2.033203 2.093699,2.032932 0 0 0 2.09375,-2.033203 2.093699,2.032932 0 0 0 -2.09375,-2.033204 z m 0.15039,0.431641 a 1.6793786,1.646233 0 0 1 1.679688,1.646484 1.6793786,1.646233 0 0 1 -1.679688,1.646485 1.6793786,1.646233 0 0 1 -1.679687,-1.646485 1.6793786,1.646233 0 0 1 1.679687,-1.646484 z"
         style="fill:#104069;fill-opacity:1;stroke-width:0.10336062;stroke-linejoin:round;stroke-miterlimit:4;stroke-dasharray:none"
         inkscape:connector-curvature="0" />
      <path
         sodipodi:nodetypes="ccccccc"
         inkscape:connector-curvature="0"
         id="path933"
         d="m 37.789063,24.316406 c 0.361914,0.178956 0.545701,0.54358 0.546875,0.957031 0,0.595432 -0.468702,1.078125 -1.046875,1.078125 -0.414384,-2.5e-4 -0.793532,-0.201417 -0.960937,-0.591797 0.115759,0.547367 0.598154,0.888002 1.152343,0.888672 0.649366,0 1.175782,-0.531662 1.175782,-1.1875 -6.73e-4,-0.553455 -0.332942,-1.021337 -0.867188,-1.144531 z"
         style="fill:#0f4069;fill-opacity:1;stroke-width:0;stroke-linejoin:round;stroke-miterlimit:4;stroke-dasharray:none" />
    </g>
  </g>
</svg>
